<svg xmlns="http://www.w3.org/2000/svg" xmlns:xlink="http://www.w3.org/1999/xlink" width="1300" zoomAndPan="magnify" viewBox="0 0 974.88 599.999999" height="800" preserveAspectRatio="xMidYMid meet" version="1.0"><defs><g/><clipPath id="d7b3fdb163"><path d="M 288.667969 154 L 520 154 L 520 387.234375 L 288.667969 387.234375 Z M 288.667969 154 " clip-rule="nonzero"/></clipPath><clipPath id="8f2ec1d7bc"><path d="M 455 42.277344 L 686.117188 42.277344 L 686.117188 387.234375 L 455 387.234375 Z M 455 42.277344 " clip-rule="nonzero"/></clipPath><clipPath id="d3b6725240"><path d="M 288.667969 361 L 480 361 L 480 387.234375 L 288.667969 387.234375 Z M 288.667969 361 " clip-rule="nonzero"/></clipPath><clipPath id="51e59aa5cd"><path d="M 455 93 L 686.117188 93 L 686.117188 387.234375 L 455 387.234375 Z M 455 93 " clip-rule="nonzero"/></clipPath><clipPath id="129c9cefb1"><path d="M 455 42.277344 L 488 42.277344 L 488 99 L 455 99 Z M 455 42.277344 " clip-rule="nonzero"/></clipPath></defs><g clip-path="url(#d7b3fdb163)"><path fill="#67dcff" d="M 487.386719 154.152344 L 422.976562 154.152344 L 288.667969 387.042969 L 481.902344 387.042969 L 519.597656 321.675781 L 492.871094 275.355469 L 487.386719 265.839844 L 481.902344 275.355469 L 449.691406 331.195312 L 385.289062 331.195312 Z M 487.386719 154.152344 " fill-opacity="1" fill-rule="evenodd"/></g><g clip-path="url(#8f2ec1d7bc)"><path fill="#83858c" d="M 686.117188 387.042969 L 586.753906 214.75 L 487.386719 42.464844 L 455.1875 98.316406 L 470.007812 124.011719 L 487.386719 154.152344 L 505.0625 184.792969 L 589.496094 331.195312 L 606.875 361.335938 L 621.707031 387.042969 Z M 686.117188 387.042969 " fill-opacity="1" fill-rule="evenodd"/></g><path fill="#3a42ff" d="M 487.386719 154.152344 L 437.371094 180.601562 L 333.140625 361.335938 L 385.289062 331.195312 Z M 487.386719 154.152344 " fill-opacity="1" fill-rule="evenodd"/><g clip-path="url(#d3b6725240)"><path fill="#3a42ff" d="M 333.140625 361.335938 L 288.667969 387.042969 L 479.941406 387.042969 L 466.015625 361.335938 Z M 333.140625 361.335938 " fill-opacity="1" fill-rule="evenodd"/></g><path fill="#3a42ff" d="M 449.691406 331.195312 L 466.015625 361.335938 L 482.753906 331.195312 L 489.359375 319.308594 L 487.386719 265.839844 Z M 449.691406 331.195312 " fill-opacity="1" fill-rule="evenodd"/><g clip-path="url(#51e59aa5cd)"><path fill="#68696e" d="M 505.0625 184.792969 L 589.496094 331.195312 L 606.875 361.335938 L 621.707031 387.042969 L 686.117188 387.042969 L 641.648438 361.335938 L 487.386719 93.871094 L 455.1875 98.316406 L 470.007812 124.011719 L 487.386719 154.152344 Z M 505.0625 184.792969 " fill-opacity="1" fill-rule="evenodd"/></g><g clip-path="url(#129c9cefb1)"><path fill="#8b8d93" d="M 487.386719 93.871094 L 487.386719 42.464844 L 455.1875 98.316406 Z M 487.386719 93.871094 " fill-opacity="1" fill-rule="evenodd"/></g><g fill="#ffffff" fill-opacity="1"><g transform="translate(227.715861, 439.807648)"><g><path d="M 26.585938 0 L 33.632812 0 L 22.851562 -30.640625 L 12.164062 -30.640625 L 1.382812 0 L 8.429688 0 L 10.644531 -6.265625 L 24.375 -6.265625 Z M 12.53125 -11.65625 L 17.507812 -25.800781 L 22.484375 -11.65625 Z M 12.53125 -11.65625 "/></g></g></g><g fill="#ffffff" fill-opacity="1"><g transform="translate(276.554502, 439.807648)"><g><path d="M 26.585938 -25.109375 L 26.585938 -30.640625 L 2.671875 -30.640625 L 2.671875 0 L 9.675781 0 L 9.675781 -12.484375 L 25.019531 -12.484375 L 25.019531 -17.691406 L 9.675781 -17.691406 L 9.675781 -25.109375 Z M 26.585938 -25.109375 "/></g></g></g><g fill="#ffffff" fill-opacity="1"><g transform="translate(318.942758, 439.807648)"><g><path d="M 28.152344 -7.464844 C 28.152344 -11.886719 25.710938 -13.453125 22.578125 -14.238281 C 26.214844 -15.019531 28.980469 -17.921875 28.980469 -22.253906 C 28.980469 -27.230469 25.617188 -30.640625 18.84375 -30.640625 L 2.671875 -30.640625 L 2.671875 0 L 9.722656 0 L 9.722656 -11.839844 L 16.035156 -11.839844 C 19.074219 -11.839844 21.148438 -10.367188 21.148438 -6.910156 L 21.148438 -5.296875 C 21.148438 -2.765625 21.378906 -1.105469 21.746094 0 L 28.75 0 C 28.425781 -1.472656 28.152344 -2.855469 28.152344 -5.390625 Z M 17.277344 -16.863281 L 9.722656 -16.863281 L 9.722656 -25.203125 L 17.277344 -25.203125 C 20.320312 -25.203125 21.65625 -23.820312 21.65625 -21.238281 C 21.65625 -18.382812 20.457031 -16.863281 17.277344 -16.863281 Z M 17.277344 -16.863281 "/></g></g></g><g fill="#ffffff" fill-opacity="1"><g transform="translate(363.911144, 439.807648)"><g><path d="M 21.007812 -25.109375 L 21.007812 -30.640625 L 2.671875 -30.640625 L 2.671875 -25.109375 L 8.339844 -25.109375 L 8.339844 -5.574219 L 2.671875 -5.574219 L 2.671875 0 L 21.007812 0 L 21.007812 -5.574219 L 15.34375 -5.574219 L 15.34375 -25.109375 Z M 21.007812 -25.109375 "/></g></g></g><g fill="#ffffff" fill-opacity="1"><g transform="translate(401.461596, 439.807648)"><g><path d="M 25.617188 -30.640625 L 25.617188 -4.976562 C 25.109375 -6.542969 24.511719 -8.109375 23.957031 -9.398438 L 14.28125 -30.640625 L 2.671875 -30.640625 L 2.671875 0 L 9.398438 0 L 9.398438 -25.617188 C 9.859375 -24.050781 10.457031 -22.484375 11.148438 -20.917969 L 20.734375 0 L 32.34375 0 L 32.34375 -30.640625 Z M 25.617188 -30.640625 "/></g></g></g><g fill="#ffffff" fill-opacity="1"><g transform="translate(450.346345, 439.807648)"><g><path d="M 9.675781 -5.574219 L 9.675781 -13.039062 L 25.339844 -13.039062 L 25.339844 -18.246094 L 9.675781 -18.246094 L 9.675781 -25.109375 L 26.722656 -25.109375 L 26.722656 -30.640625 L 2.671875 -30.640625 L 2.671875 0 L 26.859375 0 L 26.859375 -5.574219 Z M 9.675781 -5.574219 "/></g></g></g><g fill="#ffffff" fill-opacity="1"><g transform="translate(493.379633, 439.807648)"><g><path d="M 40.820312 -30.640625 L 35.890625 -4.101562 L 30.132812 -30.640625 L 19.582031 -30.640625 L 13.820312 -4.101562 L 8.847656 -30.640625 L 1.980469 -30.640625 L 7.695312 0 L 19.582031 0 L 24.832031 -25.203125 L 30.085938 0 L 41.972656 0 L 47.734375 -30.640625 Z M 40.820312 -30.640625 "/></g></g></g><g fill="#ffffff" fill-opacity="1"><g transform="translate(556.915997, 439.807648)"><g><path d="M 1.796875 -10.089844 C 2.027344 -4.515625 5.484375 0.785156 15.574219 0.785156 C 25.15625 0.785156 28.886719 -3.132812 28.886719 -9.167969 C 28.886719 -14.511719 25.753906 -17.460938 19.535156 -18.152344 L 13.132812 -18.9375 C 10.597656 -19.210938 9.539062 -20.550781 9.539062 -22.347656 C 9.539062 -24.742188 11.519531 -26.261719 15.25 -26.261719 C 19.304688 -26.261719 21.332031 -24.417969 21.699219 -21.5625 L 28.566406 -21.5625 C 28.199219 -27 24.417969 -31.421875 15.25 -31.421875 C 6.632812 -31.421875 2.488281 -27.460938 2.488281 -21.929688 C 2.488281 -16.863281 5.527344 -13.867188 10.964844 -13.222656 L 17.738281 -12.347656 C 20.457031 -11.980469 21.839844 -10.78125 21.839844 -8.476562 C 21.839844 -6.035156 20.320312 -4.421875 15.664062 -4.421875 C 10.828125 -4.421875 8.800781 -6.820312 8.617188 -10.089844 Z M 1.796875 -10.089844 "/></g></g></g><g fill="#ffffff" fill-opacity="1"><g transform="translate(601.561867, 439.807648)"><g><path d="M 18.246094 0.785156 C 29.996094 0.785156 34.371094 -6.863281 34.371094 -15.296875 C 34.371094 -23.589844 29.996094 -31.421875 18.246094 -31.421875 C 6.496094 -31.421875 2.074219 -23.636719 2.074219 -15.296875 C 2.074219 -6.820312 6.496094 0.785156 18.246094 0.785156 Z M 9.398438 -15.296875 C 9.398438 -22.070312 11.519531 -25.710938 18.246094 -25.710938 C 24.972656 -25.710938 27.089844 -22.070312 27.089844 -15.296875 C 27.089844 -8.617188 24.972656 -4.976562 18.246094 -4.976562 C 11.519531 -4.976562 9.398438 -8.617188 9.398438 -15.296875 Z M 9.398438 -15.296875 "/></g></g></g><g fill="#ffffff" fill-opacity="1"><g transform="translate(651.874885, 439.807648)"><g><path d="M 26.585938 -25.109375 L 26.585938 -30.640625 L 2.671875 -30.640625 L 2.671875 0 L 9.675781 0 L 9.675781 -12.484375 L 25.019531 -12.484375 L 25.019531 -17.691406 L 9.675781 -17.691406 L 9.675781 -25.109375 Z M 26.585938 -25.109375 "/></g></g></g><g fill="#ffffff" fill-opacity="1"><g transform="translate(694.263141, 439.807648)"><g><path d="M 28.703125 -30.640625 L 1.519531 -30.640625 L 1.519531 -25.109375 L 11.609375 -25.109375 L 11.609375 0 L 18.613281 0 L 18.613281 -25.109375 L 28.703125 -25.109375 Z M 28.703125 -30.640625 "/></g></g></g></svg>