<svg xmlns="http://www.w3.org/2000/svg" xmlns:xlink="http://www.w3.org/1999/xlink" width="40" zoomAndPan="magnify" viewBox="0 0 30 30.000001" height="40" preserveAspectRatio="xMidYMid meet" version="1.0"><defs><clipPath id="a8d05bc4cc"><path d="M 4.617188 8.753906 L 17.703125 8.753906 L 17.703125 22.015625 L 4.617188 22.015625 Z M 4.617188 8.753906 " clip-rule="nonzero"/></clipPath><clipPath id="18ff4b9056"><path d="M 14.027344 2.402344 L 27.105469 2.402344 L 27.105469 22.015625 L 14.027344 22.015625 Z M 14.027344 2.402344 " clip-rule="nonzero"/></clipPath><clipPath id="7ec15fdcb4"><path d="M 4.617188 20.523438 L 15.441406 20.523438 L 15.441406 22.015625 L 4.617188 22.015625 Z M 4.617188 20.523438 " clip-rule="nonzero"/></clipPath><clipPath id="c3fbecb1ed"><path d="M 14.027344 5.289062 L 27.105469 5.289062 L 27.105469 22.015625 L 14.027344 22.015625 Z M 14.027344 5.289062 " clip-rule="nonzero"/></clipPath><clipPath id="8ad2f85ad2"><path d="M 14.027344 2.402344 L 15.894531 2.402344 L 15.894531 5.628906 L 14.027344 5.628906 Z M 14.027344 2.402344 " clip-rule="nonzero"/></clipPath><clipPath id="8b0ab33ec7"><path d="M 27 23 L 29.515625 23 L 29.515625 26 L 27 26 Z M 27 23 " clip-rule="nonzero"/></clipPath></defs><g clip-path="url(#a8d05bc4cc)"><path fill="#67dcff" d="M 15.859375 8.765625 L 12.214844 8.765625 L 4.617188 22.003906 L 15.550781 22.003906 L 17.683594 18.289062 L 16.171875 15.65625 L 15.859375 15.113281 L 15.550781 15.65625 L 13.726562 18.828125 L 10.082031 18.828125 Z M 15.859375 8.765625 " fill-opacity="1" fill-rule="evenodd"/></g><g clip-path="url(#18ff4b9056)"><path fill="#83858c" d="M 27.105469 22.003906 L 21.480469 12.210938 L 15.859375 2.414062 L 14.039062 5.589844 L 14.875 7.050781 L 15.859375 8.765625 L 16.859375 10.507812 L 21.636719 18.828125 L 22.621094 20.542969 L 23.460938 22.003906 Z M 27.105469 22.003906 " fill-opacity="1" fill-rule="evenodd"/></g><path fill="#3a42ff" d="M 15.859375 8.765625 L 13.03125 10.269531 L 7.132812 20.542969 L 10.082031 18.828125 Z M 15.859375 8.765625 " fill-opacity="1" fill-rule="evenodd"/><g clip-path="url(#7ec15fdcb4)"><path fill="#3a42ff" d="M 7.132812 20.542969 L 4.617188 22.003906 L 15.4375 22.003906 L 14.652344 20.542969 Z M 7.132812 20.542969 " fill-opacity="1" fill-rule="evenodd"/></g><path fill="#3a42ff" d="M 13.726562 18.828125 L 14.652344 20.542969 L 15.597656 18.828125 L 15.972656 18.152344 L 15.859375 15.113281 Z M 13.726562 18.828125 " fill-opacity="1" fill-rule="evenodd"/><g clip-path="url(#c3fbecb1ed)"><path fill="#68696e" d="M 16.859375 10.507812 L 21.636719 18.828125 L 22.621094 20.542969 L 23.460938 22.003906 L 27.105469 22.003906 L 24.585938 20.542969 L 15.859375 5.335938 L 14.039062 5.589844 L 14.875 7.050781 L 15.859375 8.765625 Z M 16.859375 10.507812 " fill-opacity="1" fill-rule="evenodd"/></g><g clip-path="url(#8ad2f85ad2)"><path fill="#8b8d93" d="M 15.859375 5.335938 L 15.859375 2.414062 L 14.039062 5.589844 Z M 15.859375 5.335938 " fill-opacity="1" fill-rule="evenodd"/></g><path fill="#ffffff" d="M 2.671875 25.003906 L 3.070312 25.003906 L 2.460938 23.261719 L 1.855469 23.261719 L 1.246094 25.003906 L 1.644531 25.003906 L 1.769531 24.648438 L 2.546875 24.648438 Z M 1.878906 24.34375 L 2.160156 23.539062 L 2.441406 24.34375 Z M 1.878906 24.34375 " fill-opacity="1" fill-rule="nonzero"/><path fill="#ffffff" d="M 5.433594 23.578125 L 5.433594 23.261719 L 4.082031 23.261719 L 4.082031 25.003906 L 4.480469 25.003906 L 4.480469 24.296875 L 5.347656 24.296875 L 5.347656 24 L 4.480469 24 L 4.480469 23.578125 Z M 5.433594 23.578125 " fill-opacity="1" fill-rule="nonzero"/><path fill="#ffffff" d="M 7.921875 24.582031 C 7.921875 24.328125 7.785156 24.242188 7.605469 24.195312 C 7.8125 24.152344 7.96875 23.984375 7.96875 23.738281 C 7.96875 23.457031 7.777344 23.261719 7.394531 23.261719 L 6.480469 23.261719 L 6.480469 25.003906 L 6.878906 25.003906 L 6.878906 24.332031 L 7.238281 24.332031 C 7.410156 24.332031 7.527344 24.414062 7.527344 24.613281 L 7.527344 24.703125 C 7.527344 24.847656 7.539062 24.941406 7.558594 25.003906 L 7.957031 25.003906 C 7.9375 24.921875 7.921875 24.84375 7.921875 24.699219 Z M 7.308594 24.046875 L 6.878906 24.046875 L 6.878906 23.574219 L 7.308594 23.574219 C 7.480469 23.574219 7.554688 23.652344 7.554688 23.796875 C 7.554688 23.960938 7.488281 24.046875 7.308594 24.046875 Z M 7.308594 24.046875 " fill-opacity="1" fill-rule="nonzero"/><path fill="#ffffff" d="M 10.0625 23.578125 L 10.0625 23.261719 L 9.023438 23.261719 L 9.023438 23.578125 L 9.34375 23.578125 L 9.34375 24.6875 L 9.023438 24.6875 L 9.023438 25.003906 L 10.0625 25.003906 L 10.0625 24.6875 L 9.742188 24.6875 L 9.742188 23.578125 Z M 10.0625 23.578125 " fill-opacity="1" fill-rule="nonzero"/><path fill="#ffffff" d="M 12.449219 23.261719 L 12.449219 24.722656 C 12.417969 24.632812 12.386719 24.542969 12.355469 24.472656 L 11.804688 23.261719 L 11.148438 23.261719 L 11.148438 25.003906 L 11.53125 25.003906 L 11.53125 23.546875 C 11.554688 23.636719 11.589844 23.726562 11.628906 23.816406 L 12.171875 25.003906 L 12.828125 25.003906 L 12.828125 23.261719 Z M 12.449219 23.261719 " fill-opacity="1" fill-rule="nonzero"/><path fill="#ffffff" d="M 14.3125 24.6875 L 14.3125 24.265625 L 15.199219 24.265625 L 15.199219 23.96875 L 14.3125 23.96875 L 14.3125 23.578125 L 15.277344 23.578125 L 15.277344 23.261719 L 13.914062 23.261719 L 13.914062 25.003906 L 15.285156 25.003906 L 15.285156 24.6875 Z M 14.3125 24.6875 " fill-opacity="1" fill-rule="nonzero"/><path fill="#ffffff" d="M 18.507812 23.261719 L 18.230469 24.773438 L 17.902344 23.261719 L 17.308594 23.261719 L 16.980469 24.773438 L 16.699219 23.261719 L 16.3125 23.261719 L 16.632812 25.003906 L 17.308594 25.003906 L 17.605469 23.574219 L 17.902344 25.003906 L 18.574219 25.003906 L 18.898438 23.261719 Z M 18.507812 23.261719 " fill-opacity="1" fill-rule="nonzero"/><path fill="#ffffff" d="M 19.894531 24.429688 C 19.910156 24.75 20.105469 25.050781 20.675781 25.050781 C 21.21875 25.050781 21.429688 24.828125 21.429688 24.484375 C 21.429688 24.179688 21.25 24.011719 20.898438 23.972656 L 20.535156 23.929688 C 20.394531 23.914062 20.332031 23.835938 20.332031 23.734375 C 20.332031 23.597656 20.445312 23.511719 20.65625 23.511719 C 20.886719 23.511719 21 23.617188 21.019531 23.777344 L 21.410156 23.777344 C 21.390625 23.46875 21.175781 23.21875 20.65625 23.21875 C 20.167969 23.21875 19.933594 23.445312 19.933594 23.757812 C 19.933594 24.046875 20.105469 24.21875 20.414062 24.253906 L 20.796875 24.304688 C 20.949219 24.324219 21.03125 24.390625 21.03125 24.523438 C 21.03125 24.660156 20.945312 24.753906 20.679688 24.753906 C 20.40625 24.753906 20.292969 24.617188 20.28125 24.429688 Z M 19.894531 24.429688 " fill-opacity="1" fill-rule="nonzero"/><path fill="#ffffff" d="M 23.351562 25.050781 C 24.015625 25.050781 24.265625 24.613281 24.265625 24.136719 C 24.265625 23.664062 24.015625 23.21875 23.351562 23.21875 C 22.6875 23.21875 22.4375 23.660156 22.4375 24.136719 C 22.4375 24.617188 22.6875 25.050781 23.351562 25.050781 Z M 22.851562 24.136719 C 22.851562 23.75 22.972656 23.542969 23.351562 23.542969 C 23.734375 23.542969 23.851562 23.75 23.851562 24.136719 C 23.851562 24.515625 23.734375 24.722656 23.351562 24.722656 C 22.972656 24.722656 22.851562 24.515625 22.851562 24.136719 Z M 22.851562 24.136719 " fill-opacity="1" fill-rule="nonzero"/><path fill="#ffffff" d="M 26.671875 23.578125 L 26.671875 23.261719 L 25.316406 23.261719 L 25.316406 25.003906 L 25.714844 25.003906 L 25.714844 24.296875 L 26.582031 24.296875 L 26.582031 24 L 25.714844 24 L 25.714844 23.578125 Z M 26.671875 23.578125 " fill-opacity="1" fill-rule="nonzero"/><g clip-path="url(#8b0ab33ec7)"><path fill="#ffffff" d="M 29.1875 23.261719 L 27.652344 23.261719 L 27.652344 23.578125 L 28.222656 23.578125 L 28.222656 25.003906 L 28.617188 25.003906 L 28.617188 23.578125 L 29.1875 23.578125 Z M 29.1875 23.261719 " fill-opacity="1" fill-rule="nonzero"/></g></svg>