<svg xmlns="http://www.w3.org/2000/svg" xmlns:xlink="http://www.w3.org/1999/xlink" width="40" zoomAndPan="magnify" viewBox="0 0 30 30.000001" height="40" preserveAspectRatio="xMidYMid meet" version="1.0"><defs><g/><clipPath id="eca004093a"><path d="M 0.484375 0 L 29.515625 0 L 29.515625 29.03125 L 0.484375 29.03125 Z M 0.484375 0 " clip-rule="nonzero"/></clipPath><clipPath id="0ceb767017"><path d="M 1.210938 13 L 6 13 L 6 18.234375 L 1.210938 18.234375 Z M 1.210938 13 " clip-rule="nonzero"/></clipPath><clipPath id="a715ab2f3f"><path d="M 4 10.976562 L 9.195312 10.976562 L 9.195312 18.234375 L 4 18.234375 Z M 4 10.976562 " clip-rule="nonzero"/></clipPath><clipPath id="b5492b483c"><path d="M 1.210938 17 L 6 17 L 6 18.234375 L 1.210938 18.234375 Z M 1.210938 17 " clip-rule="nonzero"/></clipPath><clipPath id="e34a7667b7"><path d="M 4 12 L 9.195312 12 L 9.195312 18.234375 L 4 18.234375 Z M 4 12 " clip-rule="nonzero"/></clipPath><clipPath id="5f9db27be7"><path d="M 4 10.976562 L 6 10.976562 L 6 13 L 4 13 Z M 4 10.976562 " clip-rule="nonzero"/></clipPath></defs><g clip-path="url(#eca004093a)"><path fill="#ffffff" d="M 0.484375 0 L 29.515625 0 L 29.515625 36.289062 L 0.484375 36.289062 Z M 0.484375 0 " fill-opacity="1" fill-rule="nonzero"/><path fill="#ffffff" d="M 0.484375 0 L 29.515625 0 L 29.515625 29.03125 L 0.484375 29.03125 Z M 0.484375 0 " fill-opacity="1" fill-rule="nonzero"/><path fill="#ffffff" d="M 0.484375 0 L 29.515625 0 L 29.515625 29.03125 L 0.484375 29.03125 Z M 0.484375 0 " fill-opacity="1" fill-rule="nonzero"/></g><g clip-path="url(#0ceb767017)"><path fill="#67dcff" d="M 5.203125 13.332031 L 3.90625 13.332031 L 1.210938 18.226562 L 5.089844 18.226562 L 5.847656 16.855469 L 5.3125 15.878906 L 5.203125 15.679688 L 5.089844 15.878906 L 4.445312 17.054688 L 3.152344 17.054688 Z M 5.203125 13.332031 " fill-opacity="1" fill-rule="evenodd"/></g><g clip-path="url(#a715ab2f3f)"><path fill="#83858c" d="M 9.195312 18.226562 L 5.203125 10.984375 L 4.554688 12.160156 L 4.851562 12.699219 L 5.203125 13.332031 L 5.554688 13.976562 L 7.253906 17.054688 L 7.601562 17.6875 L 7.898438 18.226562 Z M 9.195312 18.226562 " fill-opacity="1" fill-rule="evenodd"/></g><path fill="#3a42ff" d="M 5.203125 13.332031 L 4.195312 13.890625 L 2.101562 17.6875 L 3.152344 17.054688 Z M 5.203125 13.332031 " fill-opacity="1" fill-rule="evenodd"/><g clip-path="url(#b5492b483c)"><path fill="#3a42ff" d="M 2.101562 17.6875 L 1.210938 18.226562 L 5.050781 18.226562 L 4.773438 17.6875 Z M 2.101562 17.6875 " fill-opacity="1" fill-rule="evenodd"/></g><path fill="#3a42ff" d="M 4.445312 17.054688 L 4.773438 17.6875 L 5.109375 17.054688 L 5.242188 16.804688 L 5.203125 15.679688 Z M 4.445312 17.054688 " fill-opacity="1" fill-rule="evenodd"/><g clip-path="url(#e34a7667b7)"><path fill="#68696e" d="M 5.554688 13.976562 L 7.253906 17.054688 L 7.601562 17.6875 L 7.898438 18.226562 L 9.195312 18.226562 L 8.300781 17.6875 L 5.203125 12.066406 L 4.554688 12.160156 L 4.851562 12.699219 L 5.203125 13.332031 Z M 5.554688 13.976562 " fill-opacity="1" fill-rule="evenodd"/></g><g clip-path="url(#5f9db27be7)"><path fill="#8b8d93" d="M 5.203125 12.066406 L 5.203125 10.984375 L 4.554688 12.160156 Z M 5.203125 12.066406 " fill-opacity="1" fill-rule="evenodd"/></g><g fill="#ffffff" fill-opacity="1"><g transform="translate(8.646194, 16.126348)"><g><path d="M 1.0625 0 L 1.34375 0 L 0.914062 -1.222656 L 0.484375 -1.222656 L 0.0546875 0 L 0.335938 0 L 0.425781 -0.25 L 0.972656 -0.25 Z M 0.5 -0.464844 L 0.699219 -1.03125 L 0.898438 -0.464844 Z M 0.5 -0.464844 "/></g></g></g><g fill="#ffffff" fill-opacity="1"><g transform="translate(10.596867, 16.126348)"><g><path d="M 1.0625 -1.003906 L 1.0625 -1.222656 L 0.105469 -1.222656 L 0.105469 0 L 0.386719 0 L 0.386719 -0.5 L 1 -0.5 L 1 -0.707031 L 0.386719 -0.707031 L 0.386719 -1.003906 Z M 1.0625 -1.003906 "/></g></g></g><g fill="#ffffff" fill-opacity="1"><g transform="translate(12.289904, 16.126348)"><g><path d="M 1.125 -0.296875 C 1.125 -0.476562 1.027344 -0.539062 0.902344 -0.570312 C 1.046875 -0.601562 1.15625 -0.714844 1.15625 -0.890625 C 1.15625 -1.085938 1.023438 -1.222656 0.753906 -1.222656 L 0.105469 -1.222656 L 0.105469 0 L 0.386719 0 L 0.386719 -0.472656 L 0.640625 -0.472656 C 0.761719 -0.472656 0.84375 -0.414062 0.84375 -0.277344 L 0.84375 -0.210938 C 0.84375 -0.109375 0.855469 -0.0429688 0.867188 0 L 1.148438 0 C 1.136719 -0.0585938 1.125 -0.113281 1.125 -0.214844 Z M 0.691406 -0.671875 L 0.386719 -0.671875 L 0.386719 -1.007812 L 0.691406 -1.007812 C 0.8125 -1.007812 0.863281 -0.953125 0.863281 -0.847656 C 0.863281 -0.734375 0.816406 -0.671875 0.691406 -0.671875 Z M 0.691406 -0.671875 "/></g></g></g><g fill="#ffffff" fill-opacity="1"><g transform="translate(14.085994, 16.126348)"><g><path d="M 0.839844 -1.003906 L 0.839844 -1.222656 L 0.105469 -1.222656 L 0.105469 -1.003906 L 0.332031 -1.003906 L 0.332031 -0.222656 L 0.105469 -0.222656 L 0.105469 0 L 0.839844 0 L 0.839844 -0.222656 L 0.613281 -0.222656 L 0.613281 -1.003906 Z M 0.839844 -1.003906 "/></g></g></g><g fill="#ffffff" fill-opacity="1"><g transform="translate(15.585804, 16.126348)"><g><path d="M 1.023438 -1.222656 L 1.023438 -0.199219 C 1.003906 -0.261719 0.980469 -0.324219 0.957031 -0.375 L 0.570312 -1.222656 L 0.105469 -1.222656 L 0.105469 0 L 0.375 0 L 0.375 -1.023438 C 0.394531 -0.960938 0.417969 -0.898438 0.445312 -0.835938 L 0.828125 0 L 1.292969 0 L 1.292969 -1.222656 Z M 1.023438 -1.222656 "/></g></g></g><g fill="#ffffff" fill-opacity="1"><g transform="translate(17.538319, 16.126348)"><g><path d="M 0.386719 -0.222656 L 0.386719 -0.519531 L 1.011719 -0.519531 L 1.011719 -0.730469 L 0.386719 -0.730469 L 0.386719 -1.003906 L 1.066406 -1.003906 L 1.066406 -1.222656 L 0.105469 -1.222656 L 0.105469 0 L 1.074219 0 L 1.074219 -0.222656 Z M 0.386719 -0.222656 "/></g></g></g><g fill="#ffffff" fill-opacity="1"><g transform="translate(19.257119, 16.126348)"><g><path d="M 1.628906 -1.222656 L 1.433594 -0.164062 L 1.203125 -1.222656 L 0.78125 -1.222656 L 0.550781 -0.164062 L 0.351562 -1.222656 L 0.078125 -1.222656 L 0.308594 0 L 0.78125 0 L 0.992188 -1.007812 L 1.203125 0 L 1.675781 0 L 1.90625 -1.222656 Z M 1.628906 -1.222656 "/></g></g></g><g fill="#ffffff" fill-opacity="1"><g transform="translate(21.794837, 16.126348)"><g><path d="M 0.0703125 -0.402344 C 0.0820312 -0.179688 0.21875 0.03125 0.621094 0.03125 C 1.003906 0.03125 1.152344 -0.125 1.152344 -0.367188 C 1.152344 -0.578125 1.027344 -0.699219 0.78125 -0.726562 L 0.523438 -0.757812 C 0.421875 -0.765625 0.382812 -0.820312 0.382812 -0.890625 C 0.382812 -0.988281 0.460938 -1.050781 0.609375 -1.050781 C 0.769531 -1.050781 0.851562 -0.976562 0.867188 -0.859375 L 1.140625 -0.859375 C 1.125 -1.078125 0.976562 -1.253906 0.609375 -1.253906 C 0.265625 -1.253906 0.0976562 -1.097656 0.0976562 -0.875 C 0.0976562 -0.671875 0.222656 -0.554688 0.4375 -0.527344 L 0.707031 -0.492188 C 0.816406 -0.476562 0.871094 -0.429688 0.871094 -0.339844 C 0.871094 -0.242188 0.8125 -0.175781 0.625 -0.175781 C 0.433594 -0.175781 0.351562 -0.273438 0.34375 -0.402344 Z M 0.0703125 -0.402344 "/></g></g></g><g fill="#ffffff" fill-opacity="1"><g transform="translate(23.578045, 16.126348)"><g><path d="M 0.730469 0.03125 C 1.199219 0.03125 1.371094 -0.273438 1.371094 -0.609375 C 1.371094 -0.941406 1.199219 -1.253906 0.730469 -1.253906 C 0.257812 -1.253906 0.0820312 -0.945312 0.0820312 -0.609375 C 0.0820312 -0.273438 0.257812 0.03125 0.730469 0.03125 Z M 0.375 -0.609375 C 0.375 -0.882812 0.460938 -1.027344 0.730469 -1.027344 C 0.996094 -1.027344 1.082031 -0.882812 1.082031 -0.609375 C 1.082031 -0.34375 0.996094 -0.199219 0.730469 -0.199219 C 0.460938 -0.199219 0.375 -0.34375 0.375 -0.609375 Z M 0.375 -0.609375 "/></g></g></g><g fill="#ffffff" fill-opacity="1"><g transform="translate(25.587607, 16.126348)"><g><path d="M 1.0625 -1.003906 L 1.0625 -1.222656 L 0.105469 -1.222656 L 0.105469 0 L 0.386719 0 L 0.386719 -0.5 L 1 -0.5 L 1 -0.707031 L 0.386719 -0.707031 L 0.386719 -1.003906 Z M 1.0625 -1.003906 "/></g></g></g><g fill="#ffffff" fill-opacity="1"><g transform="translate(27.280644, 16.126348)"><g><path d="M 1.144531 -1.222656 L 0.0625 -1.222656 L 0.0625 -1.003906 L 0.464844 -1.003906 L 0.464844 0 L 0.742188 0 L 0.742188 -1.003906 L 1.144531 -1.003906 Z M 1.144531 -1.222656 "/></g></g></g></svg>